<svg xmlns="http://www.w3.org/2000/svg" xmlns:xlink="http://www.w3.org/1999/xlink" id="Layer_1" x="0px" y="0px" viewBox="0 0 200 50" style="enable-background:new 0 0 200 50;" xml:space="preserve"><style type="text/css">	.st0{fill:#FFFFFF;}	.st1{fill-rule:evenodd;clip-rule:evenodd;fill:#FFFFFF;}	.st2{fill:#00FFC2;}</style><g>	<path class="st0" d="M15.29,28.55H5.84V20.6h9.55c3.33,0,4.48,2.31,4.48,4.01C19.87,27.05,17.9,28.55,15.29,28.55 M19.8,18.49  c1.63-1.39,2.24-2.75,2.24-4.89c0-3.94-2.92-6.83-7.54-6.83H5.84v3.36h8.32c2.68,0,4.21,1.16,4.21,3.57c0,2.35-1.53,3.53-4.01,3.53  H5.84v-7.1H2.17v21.78h13.42c4.59,0,7.95-2.82,7.95-7.3C23.54,21.79,22.22,19.85,19.8,18.49"/>	<polygon class="st1" points="30.66,6.77 27.12,6.77 27.12,31.91 30.66,31.91 30.66,6.77  "/>	<path class="st0" d="M44.18,29.16c-3.53,0-6.42-3.09-6.42-6.63c0-3.7,2.89-6.73,6.42-6.73c3.91,0,6.56,3.06,6.56,6.73  C50.74,26.1,47.85,29.16,44.18,29.16 M50.67,15.74H50.6c-1.46-2.14-3.77-3.16-6.52-3.16c-5.54,0-9.85,4.21-9.85,10.22  c0,5.44,4.49,9.58,9.99,9.58c2.68,0,5.06-1.16,6.38-3.4h0.07v2.92h3.53V13.09h-3.53V15.74L50.67,15.74z"/>	<path class="st0" d="M67.5,15.81c2.55,0,4.25,1.33,5.3,3.54h3.91c-1.12-4.08-5.03-6.76-9.31-6.76c-5.5,0-9.61,4.42-9.61,10.09  c0,5.37,4.25,9.72,9.65,9.72c4.18,0,7.78-2.45,9.27-6.69h-3.94c-0.99,2.17-2.92,3.47-5.33,3.47c-3.57,0-6.12-2.96-6.12-6.69  C61.32,18.63,63.8,15.81,67.5,15.81"/>	<polygon class="st1" points="83.45,6.77 79.91,6.77 79.91,31.91 83.45,31.91 83.45,6.77  "/>	<polygon class="st0" points="94.39,13.09 90.21,13.09 83.52,22.16 91.06,31.91 95.47,31.91 87.56,21.96 94.39,13.09  "/>	<path class="st2" d="M111.52,28.55h-9.45V20.6h9.55c3.33,0,4.48,2.31,4.48,4.01C116.11,27.05,114.14,28.55,111.52,28.55   M116.04,18.49c1.63-1.39,2.24-2.75,2.24-4.89c0-3.94-2.92-6.83-7.54-6.83h-8.66v3.36h8.32c2.68,0,4.21,1.16,4.21,3.57  c0,2.35-1.53,3.53-4.01,3.53h-8.53v-7.1h-3.67v21.78h13.42c4.59,0,7.95-2.82,7.95-7.3C119.78,21.79,118.45,19.85,116.04,18.49"/>	<path class="st2" d="M125.94,21.31c0.27-3.23,3.16-5.51,6.05-5.51c3.02,0,5.84,2.31,6.12,5.51H125.94L125.94,21.31z M131.88,12.58  c-4.99,0-9.48,4.14-9.48,10.09c0,5.03,4.28,9.72,9.58,9.72c4.04,0,7.58-2.51,9.04-6.39h-3.53c-1.09,2-3.16,3.16-5.37,3.16  c-2.89,0-5.37-2-6.18-5.13h15.59c0.1-0.65,0.1-1.19,0.1-1.77C141.64,16.86,137.42,12.58,131.88,12.58"/>	<path class="st2" d="M154.15,29.16c-3.53,0-6.42-3.09-6.42-6.63c0-3.7,2.89-6.73,6.42-6.73c3.91,0,6.56,3.06,6.56,6.73  C160.71,26.1,157.82,29.16,154.15,29.16 M160.64,15.74h-0.07c-1.46-2.14-3.77-3.16-6.53-3.16c-5.54,0-9.85,4.21-9.85,10.22  c0,5.44,4.48,9.58,9.99,9.58c2.69,0,5.06-1.16,6.39-3.4h0.07v2.92h3.53V13.09h-3.53V15.74L160.64,15.74z"/>	<path class="st2" d="M172.1,14.79h-0.07v-1.7h-3.3v18.82h3.53V21.35c0-3.16,1.56-5.03,4.62-5.13v-3.64  C174.41,12.71,172.95,13.53,172.1,14.79"/>	<path class="st2" d="M188.31,29.16c-3.53,0-6.42-3.09-6.42-6.63c0-3.7,2.82-6.73,6.42-6.73c3.98,0,6.56,3.02,6.56,6.86  C194.87,26.24,191.88,29.16,188.31,29.16 M194.6,6.77v8.63h-0.07c-1.53-1.9-3.94-2.82-6.49-2.82c-5.61,0-9.68,4.38-9.68,10.12  c0,5.54,4.32,9.69,9.79,9.69c2.75,0,5.2-1.12,6.66-3.16h0.07v2.69h3.26V6.77H194.6L194.6,6.77z"/>	<path class="st2" d="M102.27,41.73c0-0.87-0.69-1.29-1.7-1.29h-1.21v2.58h1.21C101.58,43.02,102.27,42.6,102.27,41.73   M103.25,41.73c0,1.32-1.02,2.11-2.61,2.11h-2.25v-4.23h2.25C102.23,39.62,103.25,40.41,103.25,41.73"/>	<polygon class="st2" points="109.12,43.04 109.12,43.84 104.77,43.84 104.77,39.62 109.06,39.62 109.06,40.43 105.73,40.43   105.73,41.3 108.51,41.3 108.51,42.1 105.73,42.1 105.73,43.04 109.12,43.04  "/>	<polygon class="st2" points="111.11,39.62 112.7,42.89 114.29,39.62 115.33,39.62 113.2,43.84 112.18,43.84 110.05,39.62   111.11,39.62  "/>	<polygon class="st2" points="120.91,43.04 120.91,43.84 116.56,43.84 116.56,39.62 120.85,39.62 120.85,40.43 117.52,40.43   117.52,41.3 120.31,41.3 120.31,42.1 117.52,42.1 117.52,43.04 120.91,43.04  "/>	<polygon class="st2" points="126.36,43.01 126.36,43.84 122.4,43.84 122.4,39.62 123.37,39.62 123.37,43.01 126.36,43.01  "/>	<path class="st2" d="M131.65,41.73c0-0.91-0.66-1.41-1.7-1.41c-1.04,0-1.7,0.51-1.7,1.41c0,0.91,0.65,1.41,1.7,1.41  C130.99,43.14,131.65,42.64,131.65,41.73 M127.26,41.73c0-1.41,1.04-2.25,2.69-2.25s2.69,0.83,2.69,2.25  c0,1.41-1.04,2.25-2.69,2.25S127.26,43.14,127.26,41.73"/>	<path class="st2" d="M137.88,41.05c0-0.48-0.36-0.63-0.9-0.63h-1.85v1.26h1.85C137.52,41.68,137.88,41.54,137.88,41.05   M138.86,41.05c0,0.94-0.72,1.43-1.81,1.43h-1.92v1.37h-0.97v-4.23h2.89C138.14,39.62,138.86,40.13,138.86,41.05"/>	<polygon class="st2" points="145.92,39.62 145.92,43.84 144.96,43.84 144.96,40.9 143.1,43.17 143.05,43.17 141.2,40.9   141.2,43.84 140.26,43.84 140.26,39.62 141.32,39.62 143.1,41.85 144.89,39.62 145.92,39.62  "/>	<polygon class="st2" points="152.06,43.04 152.06,43.84 147.71,43.84 147.71,39.62 152,39.62 152,40.43 148.66,40.43 148.66,41.3   151.45,41.3 151.45,42.1 148.66,42.1 148.66,43.04 152.06,43.04  "/>	<polygon class="st2" points="158.36,39.62 158.36,43.84 157.51,43.84 154.48,40.79 154.48,43.84 153.55,43.84 153.55,39.62   154.57,39.62 157.42,42.51 157.42,39.62 158.36,39.62  "/>	<polygon class="st2" points="164.33,40.45 162.49,40.45 162.49,43.84 161.52,43.84 161.52,40.45 159.68,40.45 159.68,39.62   164.33,39.62 164.33,40.45  "/>	<path class="st2" d="M172.66,42.99c-0.42,0.58-1.26,0.99-2.4,0.99c-1.7,0-2.73-0.83-2.73-2.25c0-1.41,1.03-2.25,2.73-2.25  c1.04,0,1.77,0.39,2.2,0.8l-0.75,0.55c-0.37-0.36-0.8-0.53-1.44-0.53c-1.11,0-1.75,0.48-1.75,1.42c0,0.94,0.67,1.43,1.79,1.43  c0.63,0,1.15-0.14,1.45-0.5v-0.41h-1.59v-0.78h2.5V42.99L172.66,42.99z"/>	<path class="st2" d="M177.05,41.61c0.51,0,0.88-0.12,0.88-0.59s-0.37-0.59-0.88-0.59h-1.91v1.18H177.05L177.05,41.61z   M177.89,43.84l-1.21-1.44h-1.53v1.44h-0.96v-4.23h2.92c1.03,0,1.81,0.48,1.81,1.4c0,0.72-0.48,1.17-1.18,1.33l1.3,1.5H177.89  L177.89,43.84z"/>	<path class="st2" d="M184.53,41.73c0-0.91-0.66-1.41-1.7-1.41c-1.04,0-1.7,0.51-1.7,1.41c0,0.91,0.65,1.41,1.7,1.41  C183.87,43.14,184.53,42.64,184.53,41.73 M180.14,41.73c0-1.41,1.04-2.25,2.69-2.25c1.65,0,2.69,0.83,2.69,2.25  c0,1.41-1.04,2.25-2.69,2.25C181.18,43.98,180.14,43.14,180.14,41.73"/>	<path class="st2" d="M191.71,39.62v2.23c0,1.27-0.84,2.13-2.37,2.13c-1.53,0-2.37-0.86-2.37-2.13v-2.23h0.97v2.16  c0,0.84,0.49,1.35,1.41,1.35c0.91,0,1.41-0.51,1.41-1.35v-2.16H191.71L191.71,39.62z"/>	<path class="st2" d="M197.13,41.05c0-0.48-0.36-0.63-0.9-0.63h-1.85v1.26h1.85C196.77,41.68,197.13,41.54,197.13,41.05   M198.12,41.05c0,0.94-0.72,1.43-1.81,1.43h-1.93v1.37h-0.96v-4.23h2.89C197.39,39.62,198.12,40.13,198.12,41.05"/></g></svg>